<svg width="51" height="51" viewBox="0 0 51 51" fill="none" xmlns="http://www.w3.org/2000/svg">
<path d="M35.5586 5.01465H14.7398C8.99083 5.01465 4.33038 9.65491 4.33038 15.379V36.1076C4.33038 41.8317 8.99083 46.4719 14.7398 46.4719H35.5586C41.3075 46.4719 45.968 41.8317 45.968 36.1076V15.379C45.968 9.65491 41.3075 5.01465 35.5586 5.01465Z" stroke="white" stroke-width="2" stroke-linecap="round" stroke-linejoin="round"/>
<path d="M33.4767 24.4376C33.7336 26.1627 33.4377 27.9246 32.631 29.4726C31.8242 31.0206 30.5478 32.2759 28.9832 33.06C27.4187 33.8441 25.6456 34.117 23.9163 33.8399C22.1869 33.5629 20.5894 32.7499 19.3508 31.5167C18.1123 30.2835 17.2958 28.6929 17.0175 26.971C16.7392 25.2492 17.0133 23.4838 17.8008 21.926C18.5883 20.3682 19.8491 19.0973 21.4039 18.2941C22.9586 17.4908 24.7281 17.1962 26.4608 17.452C28.2281 17.7129 29.8643 18.5329 31.1277 19.7908C32.3911 21.0487 33.2146 22.6778 33.4767 24.4376Z" stroke="white" stroke-width="2" stroke-linecap="round" stroke-linejoin="round"/>
<path d="M36.5995 14.3428H36.6203" stroke="white" stroke-width="2" stroke-linecap="round" stroke-linejoin="round"/>
</svg>
