<svg width="51" height="51" viewBox="0 0 51 51" fill="none" xmlns="http://www.w3.org/2000/svg">
<path d="M48.008 7.08774C46.0144 8.48791 43.807 9.55882 41.4709 10.2592C40.2171 8.82379 38.5507 7.80638 36.6972 7.34462C34.8437 6.88286 32.8925 6.99901 31.1075 7.67737C29.3224 8.35573 27.7897 9.56357 26.7166 11.1375C25.6435 12.7115 25.0817 14.5756 25.1073 16.4778V18.5507C21.4487 18.6451 17.8234 17.8372 14.5543 16.1989C11.2852 14.5606 8.47378 12.1427 6.37042 9.1606C6.37042 9.1606 -1.95709 27.8164 16.7798 36.1078C12.4922 39.0056 7.38463 40.4586 2.20667 40.2536C20.9436 50.6179 43.8442 40.2536 43.8442 16.4156C43.8423 15.8382 43.7866 15.2623 43.6777 14.6952C45.8025 12.6088 47.3019 9.97464 48.008 7.08774V7.08774Z" stroke="white" stroke-width="2" stroke-linecap="round" stroke-linejoin="round"/>
</svg>
