<svg width="51" height="51" viewBox="0 0 51 51" fill="none" xmlns="http://www.w3.org/2000/svg">
<path d="M47.1341 14.177C46.8868 13.1932 46.3831 12.2919 45.6739 11.5639C44.9648 10.836 44.0753 10.3073 43.0952 10.0312C39.5144 9.16064 25.191 9.16064 25.191 9.16064C25.191 9.16064 10.8677 9.16064 7.28688 10.1142C6.30683 10.3902 5.41731 10.9189 4.70816 11.6469C3.99901 12.3748 3.49534 13.2761 3.24804 14.2599C2.59269 17.8782 2.27213 21.5487 2.29037 25.2253C2.26701 28.9296 2.5876 32.6282 3.24804 36.2737C3.52068 37.2269 4.03563 38.094 4.74313 38.7912C5.45063 39.4883 6.32676 39.992 7.28688 40.2536C10.8677 41.2071 25.191 41.2071 25.191 41.2071C25.191 41.2071 39.5144 41.2071 43.0952 40.2536C44.0753 39.9775 44.9648 39.4488 45.6739 38.7209C46.3831 37.993 46.8868 37.0916 47.1341 36.1079C47.7843 32.5168 48.1049 28.8743 48.0917 25.2253C48.1151 21.521 47.7945 17.8225 47.1341 14.177V14.177Z" stroke="white" stroke-width="2" stroke-linecap="round" stroke-linejoin="round"/>
<path d="M20.5068 32.0038L32.4776 25.2255L20.5068 18.4473V32.0038Z" stroke="white" stroke-width="2" stroke-linecap="round" stroke-linejoin="round"/>
</svg>
